Coordinates
version=1
nRows=8
nColumns=40
inDegrees=yes

Units are S.I. units (second, meters, Newtons, ...)
If the header above contains a line with 'inDegrees', this indicates whether rotational values are in degrees (yes) or radians (no).

endheader
time	pelvis_tilt	pelvis_list	pelvis_rotation	pelvis_tx	pelvis_ty	pelvis_tz	hip_flexion_r	hip_adduction_r	hip_rotation_r	knee_angle_r	knee_angle_r_beta	ankle_angle_r	subtalar_angle_r	mtp_angle_r	hip_flexion_l	hip_adduction_l	hip_rotation_l	knee_angle_l	knee_angle_l_beta	ankle_angle_l	subtalar_angle_l	mtp_angle_l	lumbar_extension	lumbar_bending	lumbar_rotation	arm_flex_r	arm_add_r	arm_rot_r	elbow_flex_r	pro_sup_r	wrist_flex_r	wrist_dev_r	arm_flex_l	arm_add_l	arm_rot_l	elbow_flex_l	pro_sup_l	wrist_flex_l	wrist_dev_l
      1.00000000	      0.12822823	     -0.61211018	   -175.49830038	      0.17393505	      0.89842374	     -0.59103815	     -2.39219215	     -9.81035347	    -13.67139551	      1.58044064	      0.02758389	      3.51128748	      0.00000000	      0.00000000	      0.05784792	     -9.01592940	     -6.68007207	      2.44338901	      0.04264518	      2.49323740	      0.00000000	      0.00000000	     -4.26139808	     -5.38441111	     -3.58567280	     34.74591443	    -85.11561209	    -65.04439496	     11.50138187	     37.86878014	      0.00000000	      0.00000000	     19.41181443	    -91.29001886	    -26.50592805	     24.66218551	     39.54751945	      0.00000000	      0.00000000
      1.00500000	      0.10795268	     -0.65100169	   -175.51033158	      0.17391990	      0.89845536	     -0.59106703	     -2.41945414	     -9.85098961	    -13.67576355	      1.56797617	      0.02736635	      3.50232026	      0.00000000	      0.00000000	      0.00518024	     -8.97265852	     -6.67350795	      2.38824586	      0.04168275	      2.48096379	      0.00000000	      0.00000000	     -4.29693547	     -5.42502686	     -3.67016940	     35.21573006	    -84.89757015	    -64.86950368	     11.87607482	     37.41408592	      0.00000000	      0.00000000	     22.08287126	    -91.21007690	    -24.42603091	     24.71027478	     39.37995968	      0.00000000	      0.00000000
      1.01000000	      0.11699879	     -0.66015705	   -175.52692115	      0.17395360	      0.89845227	     -0.59102907	     -2.40120628	     -9.86727304	    -13.62878387	      1.57568541	      0.02750090	      3.51773228	      0.00000000	      0.00000000	      0.02234530	     -8.95866659	     -6.69500040	      2.40895511	      0.04204420	      2.45327150	      0.00000000	      0.00000000	     -4.28761304	     -5.42806751	     -3.74431591	     30.97679130	    -84.51452577	    -67.20121639	     12.68096437	     36.98505541	      0.00000000	      0.00000000	     26.68559132	    -91.24104398	    -19.88207792	     24.73487930	     39.18883930	      0.00000000	      0.00000000
      1.01500000	      0.08368990	     -0.61705427	   -175.52790754	      0.17393032	      0.89849440	     -0.59102921	     -2.43785915	     -9.81556229	    -13.63785502	      1.56666474	      0.02734346	      3.47083492	      0.00000000	      0.00000000	     -0.01165438	     -9.00807336	     -6.72023468	      2.41722726	      0.04218857	      2.47762045	      0.00000000	      0.00000000	     -4.32114458	     -5.37508744	     -3.76054704	     30.57613587	    -84.54418710	    -66.94041311	     12.67111521	     36.52392630	      0.00000000	      0.00000000	     26.14232462	    -91.20831592	    -20.63526706	     24.72692939	     39.06426215	      0.00000000	      0.00000000
      1.02000000	      0.15518792	     -0.61867294	   -175.44264448	      0.17393628	      0.89838649	     -0.59092944	     -2.37708009	     -9.82028066	    -13.74930824	      1.58040260	      0.02758323	      3.49880507	      0.00000000	      0.00000000	      0.09888498	     -8.99932812	     -6.57825076	      2.43103579	      0.04242958	      2.50016203	      0.00000000	      0.00000000	     -4.24605381	     -5.39667098	     -3.68401071	     31.41470146	    -84.70247699	    -67.80749287	     12.55518812	     35.81892123	      0.00000000	      0.00000000	     25.47744525	    -91.35328781	    -20.21516784	     24.93992269	     38.53550922	      0.00000000	      0.00000000
      1.02500000	      0.05247377	     -0.63579088	   -175.45655747	      0.17396945	      0.89852942	     -0.59090852	     -2.47893269	     -9.83407855	    -13.76182084	      1.58463977	      0.02765718	      3.50532237	      0.00000000	      0.00000000	     -0.05031756	     -8.98212549	     -6.60055610	      2.36473250	      0.04127237	      2.44356090	      0.00000000	      0.00000000	     -4.35981414	     -5.38614274	     -3.81768410	     29.24467233	    -84.40802781	    -67.65808915	     13.01705690	     36.28072307	      0.00000000	      0.00000000	     21.93048476	    -91.35755469	    -24.14744680	     24.54558830	     38.92972380	      0.00000000	      0.00000000
      1.03000000	      0.12774481	     -0.60525178	   -175.46369184	      0.17393210	      0.89844556	     -0.59090585	     -2.40161672	     -9.81175898	    -13.72921672	      1.57103569	      0.02741975	      3.43427660	      0.00000000	      0.00000000	      0.06252168	     -9.01288663	     -6.61554930	      2.43435820	      0.04248757	      2.51519174	      0.00000000	      0.00000000	     -4.29517241	     -5.37234981	     -3.66937677	     32.40390703	    -84.68302285	    -67.51630860	     12.61426298	     35.69999099	      0.00000000	      0.00000000	     20.58036534	    -91.24359128	    -25.68921499	     24.85097353	     38.60529145	      0.00000000	      0.00000000
      1.03500000	      0.08755119	     -0.63888228	   -175.54104458	      0.17391955	      0.89848323	     -0.59098385	     -2.42992335	     -9.84573208	    -13.63885520	      1.57514549	      0.02749147	      3.46711385	      0.00000000	      0.00000000	     -0.02411344	     -8.97607141	     -6.70596067	      2.38977066	      0.04170937	      2.47059372	      0.00000000	      0.00000000	     -4.32836735	     -5.39952111	     -3.69633056	     32.63261111	    -84.72316046	    -65.83869457	     12.43702082	     35.53962490	      0.00000000	      0.00000000	     20.32613904	    -91.24998030	    -26.26511900	     24.69303415	     38.58246418	      0.00000000	      0.00000000
